<svg width="512" height="512" viewBox="0 0 512 512" fill="none" xmlns="http://www.w3.org/2000/svg">
<g clip-path="url(#clip0)">
<path d="M305.807 117.928C319.032 117.891 332.257 117.891 345.495 117.928C345.495 131.084 345.468 144.239 345.508 157.393C361.349 157.43 377.202 157.357 393.057 157.418C398.005 157.22 402.525 159.812 405.544 163.415C430.956 191.034 456.319 218.701 481.744 246.308C485.229 249.811 488.713 254.045 488.338 259.179C488.493 266.767 481.2 273.271 473.351 273.161C416.786 273.234 360.209 273.148 303.632 273.209C298.942 273.123 293.891 273.728 289.617 271.481C285.369 269.039 282.415 265.089 278.891 261.843C242.144 226.032 205.942 189.701 169.013 154.062C129.068 192.218 89.0174 230.264 49.058 268.409C45.3545 272.172 39.4347 274.209 34.1362 272.642C27.4793 271.049 22.4401 264.645 23.05 258.068C23.1397 253.661 26.0148 249.936 29.2014 246.985C72.3866 205.905 115.493 164.761 158.664 123.666C164.052 118.261 173.936 117.916 179.466 123.321C191.047 134.649 202.717 145.905 214.127 157.393C244.684 157.418 275.24 157.368 305.794 157.418C305.847 144.25 305.807 131.096 305.807 117.928Z" fill="#A7A9AC"/>
<path d="M307.568 294.386C307.568 294.386 304.711 294.947 302.783 294.697C300.86 294.447 297.341 293.368 297.341 293.368C297.341 293.368 299.303 289.342 301.2 288.654C301.912 288.395 303.059 287.652 305.172 288.858C307.286 290.07 307.568 294.386 307.568 294.386Z" fill="#F8DC78"/>
<path d="M300.935 305.665C304.089 302.673 305.009 299.863 305.009 299.863C305.586 297.952 306.723 298.569 306.723 298.569C305.452 303.599 300.574 305.999 300.574 305.999C300.697 305.887 300.817 305.777 300.935 305.665ZM296.798 303.086C297.486 304.674 298.216 305.83 298.865 306.692C299.808 307.945 300.473 307.562 301.313 307.057C301.957 306.667 303.43 305.647 304.868 304.125C306.679 302.216 307.445 300.646 308.003 299.319C308.547 298.024 307.84 295.329 307.84 295.329C307.84 295.329 304.686 295.694 302.6 295.426C300.516 295.157 297.096 293.931 297.096 293.931C297.096 293.931 295.68 296.086 295.498 297.383C295.312 298.681 295.91 301.044 296.798 303.086Z" fill="#F8DC78"/>
<path d="M344.121 295.176C344.121 295.176 340.801 296.041 338.515 295.881C336.23 295.724 331.998 294.704 331.998 294.704C331.998 294.704 333.999 289.826 336.178 288.88C336.995 288.524 338.288 287.567 340.868 288.839C343.453 290.114 344.121 295.176 344.121 295.176Z" fill="#BCC245"/>
<path d="M337.196 308.961C340.677 305.216 341.536 301.842 341.536 301.842C342.069 299.554 343.457 300.195 343.457 300.195C342.353 306.209 336.797 309.381 336.797 309.381C336.934 309.241 337.063 309.098 337.196 308.961ZM332.121 306.217C333.057 308.04 334.007 309.35 334.84 310.318C336.047 311.724 336.8 311.228 337.748 310.574C338.478 310.069 340.129 308.762 341.704 306.87C343.684 304.494 344.468 302.589 345.019 300.989C345.561 299.425 344.517 296.302 344.517 296.302C344.517 296.302 340.83 296.956 338.356 296.787C335.88 296.618 331.759 295.421 331.759 295.421C331.759 295.421 330.261 298.053 330.145 299.593C330.031 301.136 330.92 303.877 332.121 306.217Z" fill="#BCC245"/>
<path d="M375.625 291.541C375.625 291.541 373.485 294.027 371.572 295.136C369.654 296.244 365.67 297.714 365.67 297.714C365.67 297.714 364.364 292.742 365.537 290.812C365.982 290.085 366.44 288.623 369.258 288.244C372.078 287.866 375.625 291.541 375.625 291.541Z" fill="#F066A1"/>
<path d="M378.3 306.283C378.848 301.415 377.522 298.258 377.522 298.258C376.586 296.146 378.074 295.908 378.074 295.908C380.774 301.301 378.227 306.835 378.227 306.835C378.256 306.648 378.277 306.466 378.3 306.283ZM372.617 306.836C374.447 307.784 375.985 308.315 377.224 308.637C379.026 309.109 379.331 308.306 379.698 307.273C379.982 306.477 380.521 304.541 380.65 302.179C380.817 299.212 380.313 297.271 379.796 295.694C379.297 294.157 376.606 292.227 376.606 292.227C376.606 292.227 374.054 294.744 371.978 295.944C369.903 297.145 365.901 298.418 365.901 298.418C365.901 298.418 366.275 301.326 367.098 302.621C367.924 303.913 370.264 305.619 372.617 306.836Z" fill="#F066A1"/>
<path d="M412.628 293.411C412.628 293.411 409.776 293.995 407.848 293.76C405.924 293.524 402.393 292.472 402.393 292.472C402.393 292.472 404.325 288.432 406.211 287.728C406.923 287.466 408.065 286.712 410.188 287.902C412.31 289.097 412.628 293.411 412.628 293.411Z" fill="#69C4BB"/>
<path d="M406.081 304.769C409.211 301.753 410.103 298.934 410.103 298.934C410.667 297.021 411.809 297.627 411.809 297.627C410.581 302.665 405.724 305.104 405.724 305.104C405.847 304.992 405.966 304.88 406.081 304.769ZM401.921 302.22C402.622 303.802 403.365 304.952 404.018 305.81C404.972 307.054 405.636 306.669 406.468 306.158C407.11 305.761 408.575 304.73 409.999 303.198C411.792 301.272 412.549 299.7 413.095 298.367C413.627 297.068 412.9 294.378 412.9 294.378C412.9 294.378 409.746 294.77 407.657 294.516C405.571 294.262 402.143 293.064 402.143 293.064C402.143 293.064 400.747 295.228 400.574 296.527C400.398 297.826 401.016 300.185 401.921 302.22Z" fill="#69C4BB"/>
<path d="M451.488 294.313C451.488 294.313 448.122 295.006 445.849 294.729C443.577 294.454 439.411 293.218 439.411 293.218C439.411 293.218 441.684 288.449 443.91 287.618C444.747 287.305 446.094 286.415 448.602 287.82C451.108 289.226 451.488 294.313 451.488 294.313Z" fill="#F8DC78"/>
<path d="M443.792 307.707C447.479 304.15 448.531 300.828 448.531 300.828C449.193 298.574 450.538 299.285 450.538 299.285C449.096 305.225 443.371 308.103 443.371 308.103C443.514 307.972 443.655 307.839 443.792 307.707ZM438.88 304.708C439.713 306.572 440.587 307.927 441.36 308.936C442.485 310.403 443.268 309.947 444.251 309.344C445.008 308.879 446.735 307.657 448.413 305.852C450.525 303.583 451.417 301.727 452.06 300.156C452.687 298.626 451.822 295.456 451.822 295.456C451.822 295.456 448.105 295.922 445.642 295.625C443.18 295.326 439.132 293.921 439.132 293.921C439.132 293.921 437.487 296.47 437.283 298C437.079 299.533 437.815 302.313 438.88 304.708Z" fill="#F8DC78"/>
<path d="M480.184 291.972C480.184 291.972 477.914 293.713 476.089 294.324C474.26 294.938 470.621 295.512 470.621 295.512C470.621 295.512 470.436 291.098 471.787 289.664C472.295 289.125 472.956 287.97 475.41 288.122C477.861 288.277 480.184 291.972 480.184 291.972Z" fill="#F0515E"/>
<path d="M479.709 304.885C481.074 300.854 480.537 297.958 480.537 297.958C480.138 296.011 481.441 296.061 481.441 296.061C482.726 301.081 479.549 305.339 479.549 305.339C479.605 305.187 479.657 305.036 479.709 304.885ZM474.8 304.4C476.175 305.507 477.375 306.215 478.362 306.699C479.8 307.398 480.208 306.771 480.71 305.959C481.098 305.332 481.912 303.782 482.46 301.803C483.148 299.319 483.08 297.59 482.935 296.17C482.798 294.784 480.878 292.698 480.878 292.698C480.878 292.698 478.256 294.398 476.276 295.067C474.301 295.734 470.681 296.139 470.681 296.139C470.681 296.139 470.457 298.665 470.914 299.899C471.374 301.133 473.036 302.972 474.8 304.4Z" fill="#F0515E"/>
<path d="M176.07 186.994C176.07 186.994 172.756 187.88 170.469 187.735C168.183 187.591 163.946 186.593 163.946 186.593C163.946 186.593 165.915 181.703 168.084 180.746C168.902 180.389 170.189 179.422 172.775 180.678C175.368 181.938 176.07 186.994 176.07 186.994Z" fill="#69C4BB"/>
<path d="M169.235 200.811C172.691 197.043 173.524 193.664 173.524 193.664C174.045 191.372 175.436 192.007 175.436 192.007C174.372 198.027 168.837 201.232 168.837 201.232C168.974 201.091 169.105 200.951 169.235 200.811ZM164.137 198.097C165.087 199.91 166.047 201.215 166.882 202.18C168.102 203.579 168.852 203.08 169.796 202.418C170.522 201.911 172.164 200.595 173.726 198.692C175.692 196.302 176.465 194.396 177.004 192.791C177.533 191.224 176.468 188.106 176.468 188.106C176.468 188.106 172.786 188.785 170.31 188.629C167.834 188.476 163.707 187.302 163.707 187.302C163.707 187.302 162.226 189.944 162.12 191.485C162.014 193.03 162.922 195.765 164.137 198.097Z" fill="#69C4BB"/>
<path d="M262.371 274.244C262.371 274.244 264.958 276.409 267.082 277.222C269.211 278.034 273.483 278.883 273.483 278.883C273.483 278.883 273.93 273.662 272.407 271.904C271.833 271.244 271.111 269.842 268.209 269.909C265.3 269.975 262.371 274.244 262.371 274.244Z" fill="#69C4BB"/>
<path d="M262.428 290.075C262.428 290.075 258.894 284.904 260.67 279.039C260.67 279.039 262.213 279.04 261.64 281.321C261.64 281.321 260.858 284.712 262.262 289.533C262.314 289.712 262.368 289.892 262.428 290.075ZM272.911 284.059C273.516 282.625 273.381 279.632 273.381 279.632C273.381 279.632 269.127 278.989 266.825 278.108C264.522 277.227 261.512 275.097 261.512 275.097C261.512 275.097 259.134 277.468 258.899 279.098C258.658 280.77 258.488 282.807 259.175 285.77C259.718 288.128 260.602 289.995 261.026 290.75C261.577 291.735 262.027 292.495 263.76 291.736C264.951 291.211 266.411 290.43 268.089 289.187C270.243 287.586 272.304 285.495 272.911 284.059Z" fill="#69C4BB"/>
<path d="M239.418 251.761C239.418 251.761 241.665 253.532 243.48 254.169C245.3 254.806 248.932 255.425 248.932 255.425C248.932 255.425 249.177 251.004 247.846 249.55C247.345 249.004 246.7 247.839 244.244 247.96C241.789 248.084 239.418 251.761 239.418 251.761Z" fill="#F0515E"/>
<path d="M239.855 265.131C239.855 265.131 236.736 260.841 238.088 255.842C238.088 255.842 239.392 255.808 238.967 257.747C238.967 257.747 238.391 260.634 239.7 264.676C239.751 264.828 239.8 264.979 239.855 265.131ZM248.562 259.804C249.037 258.577 248.848 256.052 248.848 256.052C248.848 256.052 245.232 255.603 243.265 254.913C241.295 254.22 238.696 252.491 238.696 252.491C238.696 252.491 236.749 254.549 236.594 255.934C236.429 257.349 236.338 259.074 236.992 261.563C237.514 263.547 238.306 265.104 238.686 265.737C239.177 266.553 239.577 267.185 241.023 266.504C242.016 266.034 243.226 265.341 244.616 264.251C246.4 262.847 248.086 261.03 248.562 259.804Z" fill="#F0515E"/>
<path d="M214.901 229.105C214.901 229.105 217.487 231.27 219.612 232.082C221.74 232.895 226.013 233.743 226.013 233.743C226.013 233.743 226.46 228.522 224.937 226.765C224.363 226.105 223.64 224.703 220.739 224.77C217.83 224.835 214.901 229.105 214.901 229.105Z" fill="#F8DC78"/>
<path d="M214.944 244.922C214.944 244.922 211.41 239.751 213.186 233.886C213.186 233.886 214.728 233.887 214.156 236.168C214.156 236.168 213.373 239.559 214.777 244.38C214.829 244.559 214.883 244.739 214.944 244.922ZM225.426 238.906C226.031 237.472 225.896 234.479 225.896 234.479C225.896 234.479 221.643 233.836 219.34 232.955C217.038 232.074 214.027 229.944 214.027 229.944C214.027 229.944 211.649 232.315 211.415 233.945C211.173 235.615 211.004 237.654 211.69 240.617C212.233 242.975 213.117 244.842 213.541 245.597C214.092 246.582 214.542 247.342 216.276 246.583C217.466 246.058 218.926 245.277 220.604 244.034C222.758 242.433 224.82 240.342 225.426 238.906Z" fill="#F8DC78"/>
<path d="M190.597 206.114C190.597 206.114 193.175 207.413 195.09 207.681C197.007 207.952 200.695 207.854 200.695 207.854C200.695 207.854 199.988 203.477 198.374 202.311C197.767 201.875 196.887 200.859 194.507 201.455C192.131 202.054 190.597 206.114 190.597 206.114Z" fill="#F066A1"/>
<path d="M193.905 219.112C193.905 219.112 189.934 215.519 190.187 210.361C190.187 210.361 191.457 210.076 191.454 212.057C191.454 212.057 191.508 214.995 193.657 218.698C193.739 218.836 193.819 218.974 193.905 219.112ZM201.289 212.207C201.492 210.913 200.766 208.478 200.766 208.478C200.766 208.478 197.131 208.741 195.058 208.447C192.98 208.152 190.066 206.963 190.066 206.963C190.066 206.963 188.6 209.356 188.744 210.742C188.886 212.161 189.166 213.867 190.339 216.176C191.273 218.017 192.384 219.387 192.889 219.933C193.545 220.637 194.071 221.177 195.342 220.23C196.213 219.577 197.25 218.663 198.377 217.327C199.823 215.606 201.086 213.5 201.289 212.207Z" fill="#F066A1"/>
<path d="M79.3025 271.73C79.3025 271.73 76.7242 273.029 74.8096 273.298C72.8918 273.569 69.2046 273.471 69.2046 273.471C69.2046 273.471 69.9107 269.094 71.5252 267.928C72.1319 267.492 73.0125 266.475 75.3918 267.072C77.7679 267.67 79.3025 271.73 79.3025 271.73Z" fill="#F066A1"/>
<path d="M76.2477 284.311C78.3954 280.608 78.4493 277.671 78.4493 277.671C78.4476 275.689 79.7164 275.974 79.7164 275.974C79.9708 281.132 75.9998 284.726 75.9998 284.726C76.0846 284.587 76.1661 284.449 76.2477 284.311ZM71.5265 282.94C72.6534 284.276 73.6906 285.19 74.5614 285.844C75.8335 286.791 76.3602 286.25 77.0158 285.546C77.5213 285.001 78.6303 283.632 79.5663 281.79C80.7389 279.48 81.0178 277.774 81.1596 276.355C81.3031 274.971 79.8387 272.576 79.8387 272.576C79.8387 272.576 76.9228 273.765 74.8468 274.06C72.7741 274.354 69.139 274.091 69.139 274.091C69.139 274.091 68.4133 276.528 68.6139 277.82C68.8194 279.113 70.0816 281.219 71.5265 282.94Z" fill="#F066A1"/>
<path d="M104.568 246.056C104.568 246.056 101.982 248.22 99.8569 249.033C97.7287 249.846 93.456 250.694 93.456 250.694C93.456 250.694 93.0092 245.473 94.5323 243.716C95.1064 243.056 95.8288 241.654 98.73 241.721C101.639 241.786 104.568 246.056 104.568 246.056Z" fill="#F0515E"/>
<path d="M104.685 261.331C106.089 256.509 105.304 253.119 105.304 253.119C104.732 250.838 106.276 250.837 106.276 250.837C108.051 256.702 104.518 261.873 104.518 261.873C104.577 261.691 104.631 261.511 104.685 261.331ZM98.8561 260.986C100.534 262.229 101.994 263.009 103.186 263.534C104.919 264.293 105.369 263.534 105.919 262.549C106.345 261.792 107.227 259.928 107.77 257.568C108.457 254.605 108.289 252.567 108.046 250.897C107.811 249.267 105.435 246.895 105.435 246.895C105.435 246.895 102.423 249.026 100.12 249.906C97.8189 250.787 93.5642 251.432 93.5642 251.432C93.5642 251.432 93.4288 254.423 94.0355 255.857C94.6405 257.293 96.7018 259.384 98.8561 260.986Z" fill="#F0515E"/>
<path d="M126.27 227.168C126.27 227.168 123.683 229.332 121.558 230.145C119.43 230.957 115.158 231.806 115.158 231.806C115.158 231.806 114.711 226.585 116.234 224.827C116.808 224.167 117.53 222.766 120.432 222.832C123.341 222.898 126.27 227.168 126.27 227.168Z" fill="#F8DC78"/>
<path d="M126.4 242.443C127.804 237.621 127.02 234.231 127.02 234.231C126.448 231.95 127.992 231.948 127.992 231.948C129.766 237.814 126.234 242.985 126.234 242.985C126.293 242.803 126.347 242.623 126.4 242.443ZM120.572 242.098C122.25 243.341 123.71 244.121 124.902 244.646C126.635 245.404 127.085 244.646 127.635 243.661C128.061 242.904 128.943 241.039 129.486 238.679C130.172 235.716 130.004 233.679 129.761 232.009C129.527 230.379 127.151 228.006 127.151 228.006C127.151 228.006 124.138 230.138 121.836 231.017C119.535 231.898 115.28 232.543 115.28 232.543C115.28 232.543 115.145 235.534 115.751 236.968C116.356 238.404 118.418 240.496 120.572 242.098Z" fill="#F8DC78"/>
<path d="M149.143 203.851C149.143 203.851 146.565 205.15 144.65 205.419C142.732 205.689 139.045 205.591 139.045 205.591C139.045 205.591 139.751 201.214 141.366 200.049C141.972 199.612 142.853 198.596 145.232 199.193C147.608 199.791 149.143 203.851 149.143 203.851Z" fill="#BCC245"/>
<path d="M146.088 216.448C148.236 212.746 148.29 209.809 148.29 209.809C148.288 207.826 149.557 208.112 149.557 208.112C149.811 213.269 145.84 216.863 145.84 216.863C145.925 216.725 146.006 216.587 146.088 216.448ZM141.367 215.078C142.494 216.414 143.531 217.328 144.402 217.982C145.674 218.928 146.201 218.387 146.856 217.684C147.362 217.138 148.471 215.769 149.407 213.928C150.579 211.618 150.858 209.911 151 208.493C151.143 207.108 149.679 204.714 149.679 204.714C149.679 204.714 146.763 205.903 144.687 206.198C142.614 206.492 138.979 206.229 138.979 206.229C138.979 206.229 138.254 208.665 138.454 209.958C138.66 211.251 139.922 213.356 141.367 215.078Z" fill="#BCC245"/>
<path d="M480.308 283.271L288.973 282.973L169.562 166.395L54.8839 275.659" stroke="#A7A9AC" stroke-width="0.00349957" stroke-miterlimit="10" stroke-linecap="round"/>
<path d="M128.754 250.001C124.77 252.17 118.581 259.423 118.51 264.71C118.51 266.133 118.723 267.082 119.292 268.031C119.505 268.167 120.217 268.235 120.715 268.167C122.209 268.031 126.193 265.049 126.477 264.507C125.908 263.693 125.268 262.134 125.268 260.779C125.339 257.051 128.683 253.187 131.671 250.34C131.244 250.069 129.252 249.933 128.754 250.001Z" fill="#A7A9AC"/>
<path d="M158.138 295.104C157.733 296.341 157.327 297.5 157.002 298.66C156.678 299.819 156.272 300.824 155.704 301.675C155.136 302.525 154.487 303.221 153.675 303.685C152.783 304.226 151.646 304.458 150.186 304.381C148.319 304.303 147.021 304.303 146.128 304.303C145.236 304.381 144.749 304.071 144.668 303.53C144.587 302.989 144.749 302.061 145.317 300.593C145.885 299.124 146.615 296.959 147.67 293.944L159.843 258.074C157.652 257.842 155.379 257.61 152.864 257.532C150.348 257.455 148.238 257.378 146.453 257.378C142.233 257.378 138.987 258.228 136.796 259.852C134.524 261.552 133.388 263.64 133.388 266.036C133.388 266.423 133.388 266.809 133.469 267.273C133.55 267.737 133.794 268.278 134.199 268.819C134.605 269.283 135.011 269.283 135.579 268.819C135.985 268.51 136.553 268.278 137.121 268.124C137.608 268.046 138.257 267.969 138.825 267.969C139.88 267.969 140.854 268.355 141.584 269.051C142.314 269.747 142.72 270.829 142.72 272.221C142.72 273.148 142.314 274.076 141.422 275.004C140.529 275.932 139.231 276.395 137.364 276.395C136.634 276.395 135.904 276.241 135.092 275.932C134.281 275.7 133.55 275.158 132.82 274.385C132.09 273.69 131.44 272.685 130.953 271.448C130.467 270.288 130.223 268.742 130.223 266.887C130.223 266.114 130.304 265.263 130.548 264.258C130.791 263.253 131.116 262.248 131.684 261.166C132.252 260.084 132.982 259.001 133.875 257.919C134.767 256.837 135.985 255.832 137.445 254.981C139.312 253.822 141.584 252.971 144.262 252.353C146.94 251.734 150.267 251.425 154.081 251.425C157.814 251.425 161.222 251.58 164.387 251.812C167.552 252.044 170.717 252.353 173.962 252.739C176.64 253.049 178.994 253.358 181.185 253.59C183.376 253.899 184.999 254.054 186.054 254.054C187.109 254.054 188.082 253.899 188.975 253.667C189.868 253.435 190.273 252.817 190.273 251.812C190.273 251.58 190.192 251.271 190.111 250.884C190.03 250.575 189.787 250.266 189.543 249.956C189.3 249.724 189.056 249.338 188.813 248.951C188.569 248.642 188.407 248.101 188.407 247.56C188.407 247.019 188.65 246.478 189.137 245.704C189.543 245.009 190.436 244.699 191.653 244.699C193.276 244.699 194.331 245.163 194.899 246.168C195.386 247.173 195.629 248.256 195.629 249.415C195.629 250.111 195.386 251.039 194.98 252.198C194.574 253.358 193.763 254.517 192.789 255.677C191.734 256.837 190.273 257.764 188.569 258.615C186.865 259.465 184.674 259.929 182.159 259.929C180.779 259.929 179.075 259.774 176.884 259.542C174.693 259.311 172.421 259.156 170.23 258.924L158.138 295.104Z" fill="#A7A9AC"/>
<path d="M193.759 300.283C194.733 300.283 195.22 300.514 195.138 301.056C195.057 301.597 194.652 302.138 193.921 302.679C193.11 303.297 191.974 303.839 190.595 304.38C189.134 304.921 187.511 305.153 185.645 305.153C184.428 305.153 183.536 304.921 183.13 304.457C182.724 303.916 182.481 303.375 182.481 302.834C182.481 302.447 182.562 301.983 182.806 301.287C182.968 300.669 183.211 299.819 183.617 298.659C184.023 297.499 184.509 296.108 185.077 294.484C185.645 292.861 186.376 290.851 187.268 288.455L189.459 282.347C189.864 281.342 190.108 280.415 190.351 279.719C190.595 279.023 190.676 278.482 190.676 278.018C190.676 277.322 190.351 277.013 189.621 277.013C189.459 277.013 189.215 276.936 188.891 276.781C188.566 276.627 188.323 276.395 188.079 276.085C187.836 275.853 187.755 275.544 187.836 275.158C187.836 274.771 188.161 274.385 188.81 273.921C189.378 273.534 190.351 273.07 191.65 272.607C192.948 272.22 194.814 271.756 197.167 271.37C198.384 271.138 199.358 271.292 200.007 271.988C200.656 272.684 200.98 273.38 200.98 274.153C200.98 275.003 200.737 276.085 200.331 277.322C199.844 278.636 199.195 280.415 198.384 282.656L194.003 294.484C193.435 295.953 193.11 296.958 192.948 297.577C192.785 298.273 192.704 298.814 192.704 299.2C192.704 299.432 192.785 299.664 192.948 299.896C193.029 300.128 193.353 300.283 193.759 300.283ZM198.059 254.13C200.007 254.13 201.467 254.517 202.441 255.367C203.333 256.217 203.82 257.3 203.82 258.459C203.82 259.078 203.658 259.696 203.414 260.237C203.09 260.856 202.684 261.397 202.197 261.861C201.629 262.402 201.061 262.789 200.412 263.098C199.682 263.407 198.952 263.562 198.222 263.562C196.68 263.562 195.382 263.175 194.489 262.325C193.516 261.474 193.029 260.315 193.029 258.846C193.029 257.686 193.516 256.604 194.489 255.599C195.463 254.594 196.68 254.13 198.059 254.13Z" fill="#A7A9AC"/>
<path d="M210.068 305.149C207.147 305.149 204.956 304.685 203.577 303.834C202.116 302.984 201.386 301.825 201.386 300.51C201.386 299.351 201.711 298.423 202.441 297.727C203.09 297.031 203.901 296.722 204.875 296.722C205.93 296.722 206.822 297.031 207.553 297.65C208.202 298.346 208.77 299.196 209.256 300.356C209.5 300.897 209.743 301.361 210.23 301.747C210.555 302.134 211.042 302.288 211.447 302.288C213.962 302.288 215.18 300.588 215.261 297.109C215.261 296.49 215.18 295.949 215.017 295.408C214.774 294.867 214.53 294.326 214.206 293.785C213.8 293.321 213.395 292.702 212.989 292.006C212.502 291.388 212.015 290.615 211.447 289.765C210.879 288.837 210.311 287.987 209.906 287.291C209.5 286.595 209.094 285.977 208.851 285.435C208.607 284.894 208.364 284.276 208.283 283.657C208.121 283.116 208.039 282.42 208.039 281.725C208.039 280.41 208.364 279.096 208.932 277.859C209.5 276.622 210.311 275.54 211.447 274.535C212.583 273.53 213.962 272.757 215.666 272.216C217.37 271.675 219.318 271.365 221.508 271.365C222.32 271.365 223.131 271.443 224.024 271.597C224.835 271.752 225.565 271.984 226.214 272.37C226.863 272.757 227.431 273.221 227.837 273.839C228.243 274.458 228.486 275.231 228.486 276.081C228.486 277.241 228.162 278.169 227.594 278.864C226.945 279.56 226.052 279.947 224.835 279.947C223.942 279.947 223.212 279.715 222.563 279.251C221.833 278.787 221.427 277.937 221.265 276.7C221.184 276.159 220.94 275.617 220.697 275.076C220.372 274.612 219.886 274.38 219.318 274.38C218.506 274.38 217.857 274.612 217.289 275.076C216.721 275.54 216.397 276.7 216.397 278.632C216.397 279.328 216.559 280.101 216.883 280.797C217.127 281.493 217.533 282.188 218.019 282.884C218.425 283.58 218.912 284.198 219.399 284.74C219.886 285.358 220.291 285.822 220.616 286.208C221.914 287.677 222.725 288.992 223.131 290.151C223.456 291.311 223.618 292.625 223.618 294.094C223.618 295.64 223.293 297.109 222.725 298.423C222.157 299.737 221.265 300.897 220.129 301.902C218.993 302.907 217.614 303.757 215.91 304.298C214.206 304.839 212.259 305.149 210.068 305.149Z" fill="#A7A9AC"/>
<path d="M74.6163 360.508C74.1616 361.894 73.707 363.194 73.3433 364.493C72.9795 365.793 72.5249 366.919 71.8884 367.872C71.2519 368.825 70.5244 369.605 69.6151 370.125C68.6149 370.731 67.3419 370.991 65.7051 370.905C63.6137 370.818 62.1588 370.818 61.1586 370.818C60.1584 370.905 59.6128 370.558 59.5219 369.952C59.4309 369.345 59.6128 368.305 60.2493 366.659C60.8858 365.013 61.7042 362.587 62.8863 359.208L76.5258 319.009C74.0707 318.749 71.5247 318.489 68.7058 318.402C65.887 318.316 63.5228 318.229 61.5223 318.229C56.794 318.229 53.1568 319.182 50.7016 321.001C48.1556 322.907 46.8826 325.247 46.8826 327.932C46.8826 328.366 46.8826 328.799 46.9735 329.319C47.0644 329.838 47.3372 330.445 47.7919 331.051C48.2465 331.571 48.7012 331.571 49.3377 331.051C49.7923 330.705 50.4289 330.445 51.0654 330.272C51.6109 330.185 52.3384 330.098 52.9749 330.098C54.157 330.098 55.2482 330.532 56.0665 331.311C56.8849 332.091 57.3395 333.304 57.3395 334.863C57.3395 335.903 56.8849 336.943 55.8847 337.982C54.8844 339.022 53.4296 339.542 51.3382 339.542C50.5198 339.542 49.7014 339.369 48.7921 339.022C47.8828 338.762 47.0644 338.156 46.2461 337.289C45.4277 336.51 44.7003 335.383 44.1547 333.997C43.6091 332.697 43.3363 330.965 43.3363 328.885C43.3363 328.019 43.4272 327.066 43.7 325.94C43.9728 324.813 44.3365 323.687 44.973 322.474C45.6096 321.261 46.4279 320.048 47.4282 318.835C48.4284 317.623 49.7923 316.496 51.4291 315.543C53.5205 314.244 56.0665 313.291 59.0672 312.598C62.0679 311.905 65.796 311.558 70.0698 311.558C74.2526 311.558 78.0716 311.731 81.6179 311.991C85.1642 312.251 88.7104 312.598 92.3476 313.031C95.3483 313.377 97.9853 313.724 100.44 313.984C102.896 314.33 104.714 314.504 105.896 314.504C107.078 314.504 108.169 314.33 109.17 314.07C110.17 313.811 110.625 313.117 110.625 311.991C110.625 311.731 110.534 311.385 110.443 310.951C110.352 310.605 110.079 310.258 109.806 309.912C109.533 309.652 109.261 309.219 108.988 308.786C108.715 308.439 108.533 307.833 108.533 307.226C108.533 306.62 108.806 306.013 109.352 305.147C109.806 304.367 110.806 304.021 112.17 304.021C113.989 304.021 115.171 304.54 115.808 305.667C116.353 306.793 116.626 308.006 116.626 309.305C116.626 310.085 116.353 311.125 115.899 312.424C115.444 313.724 114.535 315.023 113.443 316.323C112.261 317.623 110.625 318.662 108.715 319.615C106.806 320.568 104.35 321.088 101.532 321.088C99.9858 321.088 98.0763 320.915 95.6211 320.655C93.166 320.395 90.62 320.222 88.1649 319.962L74.6163 360.508Z" fill="#A7A9AC"/>
<path d="M116.721 346.299L117.54 346.906C118.54 345.346 119.722 343.787 120.995 342.227C122.177 340.668 123.541 339.281 124.996 338.069C126.36 336.856 127.906 335.816 129.452 335.036C130.997 334.256 132.543 333.91 134.18 333.91C135.908 333.91 137.272 334.17 138.272 334.776C139.272 335.383 140.09 336.076 140.727 336.942C141.363 337.809 141.727 338.762 142 339.888C142.182 341.014 142.273 342.054 142.273 343.093C142.273 346.212 141.727 349.418 140.636 352.797C139.454 356.262 138.09 359.295 136.453 362.067C134.271 365.619 131.816 368.478 129.179 370.558C126.542 372.637 123.541 373.677 120.268 373.677C118.722 373.677 117.358 373.243 116.176 372.29C114.994 371.337 114.448 369.951 114.539 368.132C114.448 367.005 114.812 366.052 115.539 365.099C116.176 364.146 117.176 363.713 118.54 363.713C119.722 363.713 120.631 364.06 121.177 364.753C121.722 365.446 122.086 366.139 122.177 366.919C122.268 367.785 122.359 368.478 122.632 369.085C122.814 369.691 123.268 370.038 123.905 370.038C124.359 370.038 124.905 369.691 125.36 369.085C125.814 368.478 126.178 367.699 126.633 366.746C126.996 365.879 127.36 364.753 127.724 363.54C128.088 362.327 128.451 361.114 128.815 359.901C129.542 357.475 130.27 354.79 130.906 351.931C131.543 349.071 131.816 346.472 131.816 344.133C131.816 341.621 130.906 340.408 129.088 340.408C128.269 340.408 127.269 340.754 126.269 341.534C125.178 342.314 124.087 343.18 123.086 344.22C121.995 345.259 120.995 346.299 119.995 347.425C118.995 348.552 118.176 349.591 117.54 350.371C116.449 351.844 115.539 353.23 114.721 354.616C113.902 356.002 113.357 357.215 112.902 358.168L107.719 370.298C107.446 370.731 106.992 370.904 106.173 370.904H98.899C97.9897 370.904 97.7169 370.558 97.9897 369.864L120.54 312.164H130.088C130.815 312.164 131.179 312.424 131.179 313.03C131.179 313.637 130.815 314.59 130.179 316.063L116.721 346.299Z" fill="#A7A9AC"/>
<path d="M176.102 362.242C176.375 362.502 176.466 362.762 176.284 363.108C175.829 363.888 175.102 364.841 174.101 365.794C173.101 366.747 171.827 367.7 170.372 368.566C168.826 369.519 167.098 370.212 165.188 370.819C163.277 371.512 161.186 371.772 158.912 371.772C155.819 371.772 153.272 370.906 151.271 369.259C149.27 367.613 148.27 365.187 148.27 362.069C148.27 360.422 148.452 358.69 148.907 356.784C149.27 354.964 149.907 353.058 150.726 351.066C151.544 349.073 152.727 347.167 154.182 345.261C155.546 343.355 157.274 341.622 159.275 339.976C161.549 338.157 163.914 336.684 166.552 335.557C169.099 334.431 171.736 333.911 174.465 333.911C177.012 333.911 178.831 334.518 179.922 335.644C181.014 336.77 181.559 338.243 181.559 339.889C181.559 342.315 180.832 344.394 179.468 346.214C178.012 348.033 175.92 349.679 173.283 351.152C170.736 352.452 168.28 353.405 166.006 353.925C163.732 354.531 161.64 354.878 159.912 354.964C159.73 355.397 159.548 356.091 159.457 357.044C159.275 358.083 159.185 359.209 159.185 360.422C159.185 361.895 159.639 363.195 160.458 364.321C161.276 365.447 162.55 366.054 164.096 366.054C166.37 366.054 168.28 365.534 169.917 364.581C171.554 363.628 172.919 362.675 173.919 361.549C174.192 361.202 174.374 361.116 174.647 361.289L176.102 362.242ZM160.64 351.759C161.458 351.845 162.641 351.585 164.369 350.979C166.097 350.372 167.552 349.506 168.917 348.293C169.644 347.687 170.281 346.647 170.918 345.348C171.554 344.048 171.827 342.662 171.827 341.189C171.827 340.496 171.645 339.803 171.372 339.196C171.1 338.59 170.372 338.243 169.371 338.243C168.553 338.243 167.643 338.676 166.734 339.543C165.824 340.409 165.006 341.535 164.187 342.835C163.368 344.221 162.732 345.694 162.095 347.254C161.458 348.9 161.004 350.372 160.64 351.759Z" fill="#A7A9AC"/>
<path d="M223.191 394.033C218.553 394.033 214.552 393.513 211.188 392.56C207.823 391.52 205.096 390.134 203.004 388.488C200.913 386.842 199.276 384.849 198.276 382.683C197.276 380.518 196.821 378.178 196.821 375.752C196.821 373.673 197.276 371.767 198.185 369.948C199.094 368.215 200.276 366.656 201.822 365.356C203.368 364.056 205.187 363.103 207.278 362.324C209.278 361.544 211.37 361.197 213.643 361.197C217.007 361.197 219.553 361.977 221.463 363.537C223.282 365.183 224.191 367.175 224.191 369.688C224.191 370.641 223.827 371.681 223.009 372.634C222.19 373.587 220.827 374.02 218.917 374.02C218.099 374.02 217.189 373.673 216.371 373.067C215.462 372.374 214.916 371.507 214.734 370.468C214.189 366.915 212.916 365.096 210.824 365.009C210.188 365.096 209.551 365.356 209.006 365.789C208.369 366.222 207.733 366.915 207.278 367.868C206.732 368.821 206.278 369.948 206.005 371.247C205.732 372.547 205.55 374.02 205.55 375.752C205.55 377.572 206.005 379.305 206.914 381.124C207.823 382.857 209.097 384.416 210.733 385.889C212.37 387.275 214.28 388.402 216.553 389.268C218.735 390.134 221.19 390.567 223.827 390.567C227.464 390.567 230.647 390.048 233.375 388.921C236.103 387.795 238.376 386.322 240.195 384.503C241.922 382.683 243.286 380.518 244.196 378.092C245.105 375.666 245.56 373.153 245.56 370.468C245.56 367.435 245.287 364.75 244.65 362.237C244.014 359.811 243.286 357.559 242.468 355.479C241.559 353.4 240.649 351.407 239.649 349.501C238.649 347.682 237.649 345.776 236.83 343.87C235.466 340.838 234.284 337.979 233.466 335.379C232.557 332.78 232.102 330.355 232.102 328.189C232.102 325.849 232.557 323.683 233.557 321.691C234.557 319.698 235.921 317.879 237.83 316.406C239.649 314.933 241.831 313.72 244.468 312.854C247.105 311.987 250.015 311.554 253.289 311.554C256.198 311.554 258.563 311.901 260.472 312.594C262.291 313.287 263.746 314.153 264.746 315.106C265.746 316.059 266.474 317.099 266.837 318.052C267.201 319.092 267.383 319.871 267.383 320.478C267.383 321.777 266.928 323.077 265.928 324.29C264.928 325.503 263.473 326.109 261.381 326.109C260.017 326.109 258.835 325.676 258.017 324.723C257.199 323.77 256.744 322.817 256.744 321.864C256.744 320.998 256.835 320.305 257.108 319.611C257.29 319.005 257.562 318.485 257.835 318.052C258.29 317.272 258.199 316.493 257.38 315.626C256.562 314.846 255.016 314.5 252.925 314.5C251.379 314.5 250.015 314.76 248.833 315.28C247.651 315.799 246.742 316.493 245.923 317.359C245.105 318.312 244.559 319.352 244.196 320.478C243.832 321.604 243.65 322.817 243.65 324.117C243.65 327.322 244.196 330.268 245.378 332.954C246.469 335.639 247.742 338.412 249.288 341.444C250.197 343.35 251.197 345.256 252.197 347.076C253.198 348.895 254.107 350.801 254.925 352.794C255.744 354.786 256.38 356.779 256.926 358.858C257.38 360.937 257.653 363.19 257.653 365.529C257.653 369.601 256.835 373.327 255.198 376.792C253.561 380.258 251.288 383.29 248.287 385.889C245.287 388.402 241.65 390.394 237.376 391.867C233.102 393.34 228.374 394.033 223.191 394.033Z" fill="#A7A9AC"/>
<path d="M292.211 362.242C292.483 362.502 292.574 362.762 292.392 363.108C291.938 363.888 291.21 364.841 290.21 365.794C289.21 366.747 287.937 367.7 286.482 368.566C284.936 369.519 283.209 370.212 281.299 370.819C279.389 371.512 277.298 371.772 275.025 371.772C271.933 371.772 269.387 370.906 267.387 369.259C265.386 367.613 264.386 365.187 264.386 362.069C264.386 360.422 264.568 358.69 265.022 356.784C265.386 354.964 266.023 353.058 266.841 351.066C267.659 349.073 268.842 347.167 270.296 345.261C271.66 343.355 273.388 341.622 275.389 339.976C277.662 338.157 280.026 336.684 282.663 335.557C285.209 334.431 287.846 333.911 290.574 333.911C293.12 333.911 294.939 334.518 296.03 335.644C297.121 336.77 297.666 338.243 297.666 339.889C297.666 342.315 296.939 344.394 295.575 346.214C294.12 348.033 292.029 349.679 289.392 351.152C286.846 352.452 284.391 353.405 282.117 353.925C279.844 354.531 277.753 354.878 276.025 354.964C275.843 355.397 275.661 356.091 275.57 357.044C275.389 358.083 275.298 359.209 275.298 360.422C275.298 361.895 275.752 363.195 276.571 364.321C277.389 365.447 278.662 366.054 280.208 366.054C282.481 366.054 284.391 365.534 286.027 364.581C287.664 363.628 289.028 362.675 290.028 361.549C290.301 361.202 290.483 361.116 290.756 361.289L292.211 362.242ZM276.752 351.759C277.571 351.845 278.753 351.585 280.481 350.979C282.208 350.372 283.663 349.506 285.027 348.293C285.755 347.687 286.391 346.647 287.028 345.348C287.664 344.048 287.937 342.662 287.937 341.189C287.937 340.496 287.755 339.803 287.482 339.196C287.209 338.59 286.482 338.243 285.482 338.243C284.663 338.243 283.754 338.676 282.845 339.543C281.936 340.409 281.117 341.535 280.299 342.835C279.48 344.221 278.844 345.694 278.207 347.254C277.571 348.9 277.116 350.372 276.752 351.759Z" fill="#A7A9AC"/>
<path d="M342.123 333.478C342.76 333.478 343.032 333.824 342.851 334.517C342.487 335.47 342.032 336.77 341.396 338.503C340.759 340.235 340.032 342.055 339.395 343.874C338.759 345.694 338.122 347.426 337.577 349.072C336.94 350.719 336.576 351.845 336.394 352.538C336.304 352.885 336.031 353.664 335.667 354.877C335.303 356.177 334.94 357.476 334.485 358.862C334.03 360.249 333.667 361.548 333.394 362.674C333.03 363.887 332.848 364.667 332.848 365.014C332.848 365.707 333.212 366.053 333.939 366.053C334.303 366.053 334.758 366.227 335.212 366.66C335.667 367.093 335.758 367.613 335.576 368.219C335.303 368.826 334.576 369.519 333.303 370.125C331.939 370.818 329.757 371.338 326.574 371.771C325.21 371.945 324.21 371.685 323.664 371.078C323.119 370.385 322.846 369.692 322.846 368.999C322.846 368.739 322.937 368.393 323.028 367.959C323.119 367.526 323.21 366.92 323.482 366.14C323.755 365.36 324.119 364.234 324.574 362.934C325.028 361.635 325.574 359.902 326.392 357.736L325.574 357.303C324.664 358.603 323.664 360.075 322.482 361.721C321.3 363.368 319.936 365.014 318.39 366.487C316.844 367.959 315.208 369.259 313.389 370.212C311.571 371.252 309.57 371.771 307.479 371.771C306.842 371.771 306.206 371.598 305.478 371.252C304.751 370.818 304.114 370.299 303.478 369.692C302.841 369.086 302.296 368.306 301.841 367.526C301.386 366.746 301.204 365.88 301.204 365.014C301.204 363.194 301.477 361.202 302.114 358.949C302.75 356.697 303.569 354.444 304.66 352.105C305.66 349.766 306.933 347.513 308.479 345.347C310.025 343.181 311.661 341.188 313.48 339.542C315.208 337.896 317.117 336.51 319.209 335.47C321.209 334.431 323.301 333.911 325.483 333.911C327.574 333.911 329.12 334.258 330.12 334.864C331.121 335.557 331.939 336.25 332.575 336.943L334.03 334.431C334.485 333.824 335.031 333.478 335.667 333.478H342.123ZM312.025 362.155C312.025 363.108 312.207 363.801 312.571 364.147C312.934 364.581 313.48 364.754 314.208 364.754C314.844 364.754 315.753 364.147 317.026 362.934C318.208 361.721 319.481 360.249 320.845 358.603C322.118 356.956 323.301 355.31 324.483 353.664C325.665 352.018 326.392 350.719 326.847 349.852C327.392 348.726 327.847 347.426 328.302 345.954C328.756 344.481 328.938 343.008 328.938 341.535C328.938 340.582 328.484 339.629 327.665 338.849C326.756 338.07 325.847 337.636 324.937 337.636C322.664 337.636 320.391 339.629 318.118 343.528C315.844 347.426 314.208 350.892 313.389 354.097C312.48 357.303 312.025 359.989 312.025 362.155Z" fill="#A7A9AC"/>
<path d="M352.218 371.772C348.945 371.772 346.49 371.252 344.944 370.299C343.307 369.346 342.489 368.047 342.489 366.574C342.489 365.274 342.853 364.234 343.671 363.455C344.398 362.675 345.308 362.328 346.399 362.328C347.581 362.328 348.581 362.675 349.4 363.368C350.127 364.148 350.764 365.101 351.309 366.4C351.582 367.007 351.855 367.527 352.4 367.96C352.764 368.393 353.31 368.566 353.764 368.566C356.583 368.566 357.947 366.66 358.038 362.762C358.038 362.069 357.947 361.462 357.765 360.856C357.492 360.249 357.22 359.643 356.856 359.036C356.401 358.516 355.947 357.823 355.492 357.044C354.946 356.35 354.401 355.484 353.764 354.531C353.128 353.491 352.491 352.538 352.037 351.759C351.582 350.979 351.127 350.286 350.854 349.679C350.582 349.073 350.309 348.38 350.218 347.687C350.036 347.08 349.945 346.301 349.945 345.521C349.945 344.048 350.309 342.575 350.945 341.189C351.582 339.803 352.491 338.59 353.764 337.464C355.037 336.337 356.583 335.471 358.493 334.864C360.402 334.258 362.584 333.911 365.04 333.911C365.949 333.911 366.858 333.998 367.858 334.171C368.768 334.345 369.586 334.604 370.314 335.038C371.041 335.471 371.677 335.991 372.132 336.684C372.587 337.377 372.86 338.243 372.86 339.196C372.86 340.496 372.496 341.535 371.859 342.315C371.132 343.095 370.132 343.528 368.768 343.528C367.767 343.528 366.949 343.268 366.222 342.748C365.403 342.229 364.949 341.276 364.767 339.889C364.676 339.283 364.403 338.676 364.13 338.07C363.767 337.55 363.221 337.29 362.584 337.29C361.675 337.29 360.948 337.55 360.311 338.07C359.675 338.59 359.311 339.889 359.311 342.055C359.311 342.835 359.493 343.701 359.857 344.481C360.129 345.261 360.584 346.041 361.13 346.82C361.584 347.6 362.13 348.293 362.675 348.9C363.221 349.593 363.676 350.113 364.039 350.546C365.494 352.192 366.404 353.665 366.858 354.964C367.222 356.264 367.404 357.737 367.404 359.383C367.404 361.116 367.04 362.762 366.404 364.234C365.767 365.707 364.767 367.007 363.494 368.133C362.221 369.259 360.675 370.212 358.765 370.819C356.856 371.425 354.674 371.772 352.218 371.772Z" fill="#A7A9AC"/>
<path d="M390.162 371.772C388.798 371.772 387.434 371.512 386.07 371.079C384.706 370.646 383.433 369.866 382.251 368.826C381.069 367.787 380.069 366.4 379.342 364.668C378.523 363.022 378.159 360.942 378.159 358.516C378.159 354.964 378.705 351.499 379.887 348.033C380.978 344.654 382.797 341.622 385.343 338.936C387.252 337.117 389.253 335.817 391.435 335.038C393.527 334.258 395.891 333.911 398.346 333.911C399.528 333.911 400.892 334.085 402.438 334.431C403.893 334.778 405.257 335.384 406.621 336.337C407.894 337.29 408.985 338.503 409.894 340.149C410.712 341.882 411.167 343.961 411.167 346.647C411.167 347.947 411.076 349.419 410.803 351.066C410.531 352.798 410.076 354.618 409.53 356.437C408.894 358.256 408.166 360.076 407.166 361.895C406.166 363.715 404.984 365.274 403.529 366.747C401.801 368.566 399.801 369.866 397.709 370.646C395.618 371.425 393.072 371.772 390.162 371.772ZM388.889 366.747C389.526 366.747 390.253 366.66 390.981 366.314C391.708 366.054 392.435 365.621 393.254 365.014C393.981 364.408 394.8 363.455 395.618 362.328C396.436 361.202 397.346 359.816 398.255 358.17C398.982 356.87 399.71 355.484 400.346 354.011C400.983 352.538 401.619 351.152 402.165 349.679C402.62 348.207 403.074 346.907 403.347 345.607C403.62 344.394 403.802 343.355 403.802 342.575C403.802 341.535 403.529 340.669 403.074 339.889C402.529 339.196 401.619 338.85 400.437 338.85C398.71 338.85 397.073 339.629 395.618 341.189C394.072 342.835 392.345 345.348 390.253 348.9C388.707 351.499 387.525 354.011 386.798 356.524C386.07 359.036 385.707 361.116 385.707 362.935C385.707 363.801 385.979 364.668 386.525 365.447C387.071 366.314 387.889 366.747 388.889 366.747Z" fill="#A7A9AC"/>
<path d="M417.62 370.906C416.801 370.906 416.528 370.559 416.801 369.953L423.075 353.318C423.621 351.932 424.166 350.546 424.621 349.246C425.076 347.947 425.53 346.647 425.894 345.521C426.258 344.394 426.531 343.441 426.803 342.662C427.076 341.882 427.167 341.362 427.167 341.102C427.167 340.149 426.803 339.716 425.985 339.716C425.803 339.716 425.621 339.37 425.53 338.763C425.349 338.157 425.44 337.55 425.894 336.77C426.258 336.077 427.076 335.471 428.44 334.778C429.713 334.171 431.714 333.911 434.533 333.911C435.896 333.911 436.897 334.258 437.442 335.038C437.897 335.817 438.17 336.597 438.17 337.29C438.17 337.897 437.715 339.283 436.897 341.362C436.078 343.441 434.987 345.867 433.805 348.553L434.623 349.16C435.26 348.207 436.26 346.907 437.533 345.174C438.715 343.441 440.17 341.709 441.898 340.063C443.626 338.417 445.444 337.03 447.535 335.731C449.536 334.518 451.627 333.911 453.901 333.911C454.901 333.911 455.719 334.085 456.447 334.431C457.174 334.864 457.811 335.298 458.265 335.904C458.72 336.51 459.084 337.117 459.356 337.81C459.629 338.503 459.72 339.11 459.72 339.716C459.72 340.149 459.629 340.756 459.447 341.535C459.265 342.315 458.993 343.268 458.629 344.481C458.174 345.781 457.629 347.34 456.992 349.16C456.265 350.979 455.446 353.232 454.446 355.917C453.355 358.863 452.628 360.942 452.173 362.155C451.718 363.368 451.536 364.234 451.536 364.754C451.536 365.707 451.9 366.227 452.719 366.227C452.9 366.227 453.173 366.4 453.628 366.747C453.992 367.18 454.082 367.613 453.81 368.133C453.537 368.74 452.719 369.346 451.355 369.953C449.991 370.559 447.626 371.165 444.262 371.772C442.898 372.032 441.898 371.772 441.443 370.992C440.898 370.126 440.625 369.346 440.625 368.48C440.625 367.7 441.079 366.054 441.989 363.541C442.807 361.029 443.989 357.91 445.353 354.098C445.717 353.145 446.081 352.019 446.535 350.892C446.99 349.766 447.354 348.64 447.717 347.513C448.081 346.387 448.354 345.434 448.627 344.568C448.899 343.788 448.99 343.182 448.99 342.748C448.99 341.449 448.354 340.842 447.172 340.842C446.626 340.842 445.899 341.189 444.899 341.969C443.898 342.748 442.716 343.788 441.534 345.001C440.352 346.214 439.079 347.6 437.897 349.073C436.715 350.546 435.624 352.019 434.714 353.405C433.714 354.878 432.805 356.35 431.986 357.563C431.077 358.95 430.532 359.903 430.259 360.682L426.713 370.386C426.622 370.559 426.44 370.646 426.349 370.732C426.167 370.819 425.803 370.906 425.349 370.906H417.62Z" fill="#A7A9AC"/>
</g>
<defs>
<clipPath id="clip0">
<rect width="466" height="444" fill="white" transform="translate(23 34)"/>
</clipPath>
</defs>
</svg>
