<svg viewBox="0 0 762 474" xmlns="http://www.w3.org/2000/svg" fill-rule="evenodd" clip-rule="evenodd" stroke-linecap="round" stroke-miterlimit="10"><path d="M462.445.048c21.624-.064 43.25-.064 64.896 0 0 22.579-.043 45.158.021 67.734 25.904.064 51.827-.062 77.752.042 8.09-.338 15.483 4.11 20.419 10.294 41.555 47.402 83.027 94.888 124.603 142.27 5.698 6.012 11.394 13.28 10.78 22.09.254 13.024-11.671 24.186-24.506 23.997-92.493.125-185.008-.021-277.523.083-7.669-.147-15.928.89-22.917-2.966-6.947-4.192-11.776-10.97-17.539-16.54-60.088-61.465-119.285-123.82-179.672-184.988-65.317 65.488-130.808 130.787-196.15 196.256-6.055 6.46-15.735 9.955-24.4 7.264C7.325 262.851-.915 251.86.083 240.571c.146-7.563 4.848-13.957 10.058-19.021C80.756 151.043 151.244 80.427 221.837 9.896c8.81-9.277 24.973-9.87 34.016-.592 18.936 19.443 38.018 38.76 56.677 58.478 49.965.042 99.93-.043 149.893.042.086-22.6.022-45.176.022-67.776" fill="#a7a9ac" fill-rule="nonzero"/><path d="M465.327 302.865s-4.672.962-7.824.533c-3.144-.43-8.898-2.28-8.898-2.28s3.208-6.91 6.309-8.09c1.165-.446 3.04-1.72 6.496.349 3.456 2.08 3.917 9.488 3.917 9.488m-10.853 19.402c5.157-5.136 6.661-9.957 6.661-9.957.944-3.28 2.803-2.221 2.803-2.221-2.077 8.632-10.053 12.752-10.053 12.752.2-.192.397-.382.589-.574m-6.765-4.426c1.125 2.725 2.32 4.709 3.381 6.189 1.541 2.15 2.63 1.493 4.003.627 1.053-.67 3.461-2.422 5.813-5.032 2.96-3.278 4.213-5.971 5.125-8.248.891-2.224-.266-6.848-.266-6.848s-5.158.626-8.568.165c-3.408-.461-9-2.565-9-2.565s-2.315 3.698-2.614 5.925c-.304 2.227.675 6.283 2.126 9.787" fill="#f8dc78" fill-rule="nonzero"/><path d="M525.098 304.257s-5.43 1.485-9.168 1.21c-3.736-.27-10.656-2.021-10.656-2.021s3.272-8.37 6.835-9.995c1.336-.61 3.45-2.253 7.67-.07 4.226 2.188 5.32 10.876 5.32 10.876m-11.332 23.65c5.691-6.426 7.096-12.218 7.096-12.218.872-3.926 3.142-2.827 3.142-2.827-1.806 10.323-10.89 15.765-10.89 15.765.223-.24.434-.485.652-.72m-8.298-4.71c1.53 3.129 3.082 5.377 4.445 7.038 1.973 2.414 3.205 1.563 4.755.44 1.194-.866 3.893-3.11 6.47-6.357 3.236-4.077 4.52-7.347 5.42-10.093.886-2.683-.82-8.043-.82-8.043s-6.03 1.123-10.076.832c-4.048-.29-10.786-2.344-10.786-2.344s-2.45 4.517-2.64 7.16c-.187 2.648 1.266 7.352 3.232 11.368" fill="#bcc245" fill-rule="nonzero"/><path d="M576.61 297.99s-3.499 4.267-6.627 6.17c-3.136 1.902-9.65 4.425-9.65 4.425s-2.136-8.534-.219-11.846c.728-1.248 1.477-3.757 6.085-4.408 4.611-.648 10.411 5.659 10.411 5.659m4.373 25.299c.896-8.355-1.272-13.774-1.272-13.774-1.53-3.624.902-4.032.902-4.032 4.416 9.256.25 18.752.25 18.752.048-.32.083-.632.12-.946m-9.293.949c2.992 1.627 5.507 2.539 7.533 3.09 2.947.811 3.446-.567 4.046-2.34.464-1.366 1.346-4.689 1.557-8.742.272-5.093-.552-8.424-1.397-11.13-.816-2.638-5.216-5.95-5.216-5.95s-4.174 4.32-7.568 6.379c-3.392 2.06-9.936 4.245-9.936 4.245s.61 4.992 1.957 7.213c1.35 2.219 5.176 5.147 9.024 7.235" fill="#f066a1" fill-rule="nonzero"/><path d="M637.114 301.23s-4.664 1.003-7.816.6c-3.146-.405-8.92-2.21-8.92-2.21s3.16-6.934 6.243-8.142c1.165-.45 3.032-1.744 6.504.299 3.47 2.05 3.99 9.453 3.99 9.453" fill="#69c4bb" fill-rule="nonzero"/><path d="M626.424 320.72c5.117-5.175 6.576-10.013 6.576-10.013.922-3.282 2.789-2.242 2.789-2.242-2.008 8.645-9.95 12.832-9.95 12.832.2-.192.395-.384.585-.576m-6.803-4.374c1.146 2.715 2.36 4.688 3.43 6.16 1.56 2.136 2.645 1.475 4.005.598 1.05-.68 3.445-2.451 5.773-5.08 2.933-3.304 4.17-6.003 5.064-8.291.87-2.23-.32-6.845-.32-6.845s-5.157.672-8.573.237c-3.411-.437-9.017-2.493-9.017-2.493s-2.282 3.714-2.565 5.944c-.288 2.229.723 6.277 2.203 9.77" fill="#69c4bb" fill-rule="nonzero"/><path d="M700.669 302.755s-5.504 1.19-9.221.715c-3.715-.472-10.528-2.595-10.528-2.595s3.717-8.184 7.357-9.61c1.368-.536 3.57-2.064 7.672.346 4.099 2.414 4.72 11.144 4.72 11.144m-12.595 23.005c6.03-6.111 7.75-11.818 7.75-11.818 1.082-3.872 3.282-2.65 3.282-2.65-2.357 10.205-11.72 15.149-11.72 15.149.235-.224.464-.454.688-.68m-8.032-5.152c1.363 3.202 2.792 5.53 4.056 7.264 1.84 2.52 3.12 1.736 4.728.7 1.238-.8 4.062-2.898 6.806-6 3.453-3.898 4.912-7.087 5.962-9.786 1.027-2.63-.39-8.074-.39-8.074s-6.076.8-10.103.29c-4.027-.514-10.645-2.928-10.645-2.928s-2.691 4.379-3.024 7.008c-.334 2.635.869 7.41 2.61 11.526" fill="#f8dc78" fill-rule="nonzero"/><path d="M747.584 298.737s-3.712 2.994-6.696 4.045c-2.99 1.056-8.942 2.043-8.942 2.043s-.301-7.592 1.907-10.06c.832-.927 1.912-2.914 5.925-2.652 4.008.266 7.806 6.624 7.806 6.624m-.768 22.165c2.232-6.91 1.354-11.875 1.354-11.875-.653-3.336 1.478-3.25 1.478-3.25 2.1 8.605-3.094 15.904-3.094 15.904.09-.262.176-.52.262-.78m-8.027-.831c2.248 1.899 4.21 3.112 5.824 3.941 2.352 1.198 3.019.123 3.84-1.27.635-1.074 1.965-3.73 2.861-7.122 1.126-4.258 1.014-7.221.776-9.656-.224-2.376-3.362-5.952-3.362-5.952s-4.288 2.915-7.526 4.062c-3.23 1.144-9.15 1.837-9.15 1.837s-.364 4.33.382 6.445c.752 2.115 3.47 5.267 6.355 7.715" fill="#f0515e" fill-rule="nonzero"/><path d="M250.29 118.57s-5.419 1.52-9.157 1.272c-3.74-.248-10.667-1.96-10.667-1.96s3.219-8.392 6.765-10.035c1.339-.613 3.443-2.272 7.672-.117 4.24 2.163 5.387 10.84 5.387 10.84" fill="#69c4bb" fill-rule="nonzero"/><path d="M239.117 142.295c5.65-6.467 7.013-12.267 7.013-12.267.85-3.933 3.125-2.842 3.125-2.842-1.738 10.33-10.79 15.832-10.79 15.832.225-.243.438-.483.652-.723m-8.336-4.659c1.552 3.112 3.122 5.352 4.488 7.008 1.994 2.4 3.22 1.544 4.765.408 1.187-.869 3.872-3.128 6.427-6.394 3.213-4.102 4.477-7.374 5.36-10.128.864-2.688-.878-8.04-.878-8.04s-6.021 1.165-10.07.898c-4.047-.264-10.796-2.277-10.796-2.277s-2.422 4.533-2.595 7.179c-.173 2.65 1.312 7.344 3.299 11.346M391.42 268.342s4.23 3.714 7.705 5.11c3.48 1.394 10.466 2.85 10.466 2.85s.731-8.96-1.76-11.976c-.938-1.134-2.12-3.539-6.864-3.424-4.757.112-9.546 7.44-9.546 7.44" fill="#69c4bb" fill-rule="nonzero"/><path d="M391.5 295.5s-5.778-8.876-2.874-18.942c0 0 2.523.002 1.587 3.917 0 0-1.28 5.819 1.016 14.094.085.306.173.616.272.93m17.141-10.325c.99-2.462.768-7.598.768-7.598s-6.955-1.104-10.72-2.616c-3.765-1.512-8.688-5.168-8.688-5.168s-3.888 4.07-4.272 6.867c-.395 2.87-.672 6.365.45 11.45.889 4.049 2.334 7.252 3.027 8.548.902 1.69 1.638 2.994 4.472 1.693 1.947-.901 4.334-2.243 7.078-4.376 3.522-2.747 6.893-6.336 7.885-8.8" fill="#69c4bb" fill-rule="nonzero"/><path d="M353.874 229.723s3.675 3.04 6.643 4.133c2.976 1.094 8.914 2.155 8.914 2.155s.4-7.587-1.776-10.083c-.818-.936-1.874-2.936-5.89-2.728-4.014.214-7.891 6.523-7.891 6.523m.733 22.955s-5.101-7.363-2.89-15.942c0 0 2.133-.058 1.437 3.27 0 0-.941 4.954 1.2 11.89.083.262.163.52.253.782m14.238-9.142c.776-2.106.466-6.44.466-6.44s-5.912-.77-9.128-1.954c-3.221-1.19-7.472-4.158-7.472-4.158s-3.184 3.534-3.437 5.91c-.27 2.43-.419 5.39.65 9.661.854 3.405 2.15 6.077 2.771 7.163.803 1.4 1.456 2.485 3.822 1.317 1.624-.808 3.602-1.997 5.874-3.867 2.918-2.41 5.675-5.528 6.454-7.632" fill="#f0515e" fill-rule="nonzero"/><path d="M313.783 190.85s4.23 3.714 7.704 5.109c3.48 1.394 10.467 2.85 10.467 2.85s.73-8.96-1.76-11.976c-.939-1.133-2.12-3.538-6.864-3.424-4.757.112-9.547 7.44-9.547 7.44" fill="#f8dc78" fill-rule="nonzero"/><path d="M313.863 218.005s-5.778-8.874-2.874-18.941c0 0 2.522.003 1.586 3.917 0 0-1.28 5.819 1.016 14.094.086.306.174.616.272.93m17.142-10.325c.989-2.461.768-7.597.768-7.597s-6.955-1.104-10.72-2.616c-3.766-1.512-8.688-5.168-8.688-5.168s-3.888 4.069-4.272 6.866c-.395 2.867-.672 6.366.45 11.45.888 4.049 2.334 7.252 3.027 8.548.901 1.69 1.637 2.994 4.472 1.693 1.947-.901 4.333-2.243 7.077-4.376 3.523-2.747 6.894-6.336 7.886-8.8" fill="#f8dc78" fill-rule="nonzero"/><path d="M274.055 151.384s4.216 2.23 7.347 2.69c3.136.465 9.165.297 9.165.297s-1.154-7.512-3.794-9.512c-.992-.75-2.432-2.494-6.323-1.47-3.885 1.027-6.395 7.995-6.395 7.995m5.398 22.322s-6.494-6.168-6.08-15.019c0 0 2.077-.49 2.072 2.91 0 0 .088 5.042 3.602 11.397.134.237.264.475.406.712m12.074-11.85c.33-2.222-.856-6.4-.856-6.4s-5.944.45-9.333-.054c-3.397-.507-8.163-2.547-8.163-2.547s-2.397 4.107-2.162 6.486c.232 2.434.69 5.362 2.608 9.325 1.528 3.16 3.344 5.512 4.17 6.448 1.072 1.208 1.934 2.136 4.01.51 1.425-1.12 3.12-2.689 4.964-4.982 2.365-2.955 4.429-6.568 4.762-8.787M92.054 263.998s-4.216 2.23-7.346 2.69c-3.136.464-9.166.296-9.166.296s1.155-7.512 3.795-9.512c.992-.749 2.432-2.493 6.323-1.469 3.885 1.027 6.394 7.995 6.394 7.995" fill="#f066a1" fill-rule="nonzero"/><path d="M87.063 285.606c3.512-6.355 3.6-11.395 3.6-11.395-.003-3.403 2.072-2.912 2.072-2.912.416 8.85-6.078 15.019-6.078 15.019.139-.238.272-.475.406-.712m-7.72-2.352c1.842 2.293 3.538 3.861 4.962 4.984 2.08 1.624 2.942.696 4.014-.512.826-.936 2.64-3.286 4.17-6.446 1.918-3.965 2.374-6.893 2.606-9.328.234-2.376-2.16-6.485-2.16-6.485s-4.768 2.04-8.163 2.547c-3.39.504-9.333.053-9.333.053s-1.187 4.181-.86 6.4c.337 2.219 2.4 5.832 4.764 8.787" fill="#f066a1" fill-rule="nonzero"/><path d="M133.384 219.937s-4.229 3.714-7.704 5.109c-3.48 1.395-10.466 2.85-10.466 2.85s-.73-8.96 1.76-11.975c.938-1.134 2.12-3.539 6.864-3.424 4.757.112 9.546 7.44 9.546 7.44" fill="#f0515e" fill-rule="nonzero"/><path d="M133.578 246.16c2.296-8.274 1.013-14.093 1.013-14.093-.936-3.915 1.59-3.917 1.59-3.917 2.9 10.066-2.875 18.941-2.875 18.941.096-.312.184-.621.272-.93m-9.53-.593c2.743 2.134 5.13 3.472 7.08 4.374 2.834 1.301 3.57 0 4.468-1.69.696-1.3 2.14-4.5 3.027-8.55 1.123-5.086.848-8.582.45-11.448-.383-2.798-4.269-6.87-4.269-6.87s-4.925 3.66-8.69 5.168c-3.763 1.512-10.72 2.62-10.72 2.62s-.222 5.132.77 7.594c.99 2.464 4.36 6.053 7.883 8.802" fill="#f0515e" fill-rule="nonzero"/><path d="M168.876 187.519s-4.229 3.714-7.704 5.109c-3.48 1.395-10.466 2.85-10.466 2.85s-.73-8.96 1.76-11.975c.938-1.134 2.12-3.54 6.864-3.424 4.757.112 9.546 7.44 9.546 7.44" fill="#f8dc78" fill-rule="nonzero"/><path d="M169.07 213.743c2.296-8.275 1.013-14.094 1.013-14.094-.936-3.914 1.59-3.917 1.59-3.917 2.9 10.067-2.875 18.941-2.875 18.941.096-.312.184-.621.272-.93m-9.531-.592c2.744 2.133 5.13 3.472 7.08 4.373 2.835 1.301 3.57 0 4.47-1.69.695-1.3 2.138-4.5 3.026-8.55 1.123-5.085.848-8.581.45-11.448-.383-2.797-4.269-6.87-4.269-6.87s-4.925 3.66-8.69 5.169c-3.763 1.512-10.72 2.618-10.72 2.618s-.222 5.134.77 7.595c.99 2.464 4.36 6.053 7.883 8.803" fill="#f8dc78" fill-rule="nonzero"/><path d="M206.266 147.512s-4.216 2.23-7.347 2.69c-3.136.465-9.165.297-9.165.297s1.154-7.512 3.794-9.512c.992-.75 2.432-2.494 6.323-1.47 3.885 1.027 6.395 7.995 6.395 7.995" fill="#bcc245" fill-rule="nonzero"/><path d="M201.274 169.12c3.512-6.354 3.6-11.394 3.6-11.394-.003-3.403 2.072-2.912 2.072-2.912.416 8.85-6.078 15.018-6.078 15.018.14-.237.272-.474.406-.712m-7.72-2.352c1.842 2.294 3.538 3.862 4.962 4.984 2.08 1.624 2.942.696 4.014-.512.826-.936 2.64-3.285 4.17-6.445 1.918-3.965 2.374-6.893 2.606-9.328.235-2.376-2.16-6.485-2.16-6.485s-4.768 2.04-8.163 2.546c-3.39.504-9.333.054-9.333.054s-1.187 4.181-.859 6.4c.336 2.218 2.4 5.832 4.763 8.786" fill="#bcc245" fill-rule="nonzero"/><path d="M747.794 283.805l-312.87-.512L239.665 83.22 52.142 270.74" fill="none" stroke="#a7a9ac" stroke-width="2.667"/><path d="M172.94 226.71c-6.515 3.723-16.636 16.17-16.752 25.244 0 2.443.349 4.071 1.28 5.7.348.233 1.512.349 2.326.233 2.443-.233 8.957-5.351 9.423-6.282-.931-1.396-1.978-4.072-1.978-6.398.116-6.398 5.584-13.03 10.47-17.915-.698-.465-3.956-.698-4.77-.582zm48.04 77.401c-.663 2.123-1.326 4.113-1.857 6.104-.53 1.99-1.194 3.714-2.123 5.174-.929 1.46-1.99 2.653-3.317 3.45-1.46.928-3.317 1.326-5.705 1.194-3.051-.133-5.174-.133-6.634-.133-1.459.133-2.255-.398-2.388-1.327-.132-.929.133-2.52 1.062-5.042.928-2.52 2.123-6.235 3.847-11.41l19.902-61.561c-3.583-.398-7.297-.796-11.41-.929s-7.563-.265-10.482-.265c-6.899 0-12.206 1.459-15.788 4.245-3.715 2.92-5.573 6.501-5.573 10.614 0 .664 0 1.327.133 2.123.133.796.53 1.725 1.194 2.654.664.796 1.327.796 2.256 0 .663-.531 1.592-.93 2.52-1.194.797-.133 1.858-.266 2.787-.266 1.724 0 3.317.664 4.51 1.858 1.195 1.194 1.858 3.051 1.858 5.44 0 1.591-.663 3.184-2.123 4.776-1.46 1.592-3.582 2.388-6.634 2.388-1.194 0-2.388-.265-3.714-.796-1.327-.398-2.521-1.327-3.715-2.654-1.194-1.194-2.256-2.919-3.052-5.041-.796-1.99-1.194-4.644-1.194-7.828 0-1.327.133-2.786.53-4.511.399-1.725.93-3.45 1.858-5.307.929-1.858 2.123-3.715 3.582-5.573 1.46-1.857 3.45-3.582 5.838-5.041 3.052-1.99 6.767-3.45 11.145-4.511 4.378-1.062 9.818-1.592 16.054-1.592 6.103 0 11.675.265 16.85.663 5.174.398 10.348.929 15.655 1.592 4.379.53 8.226 1.061 11.808 1.46 3.583.53 6.236.796 7.961.796 1.725 0 3.317-.266 4.776-.664 1.46-.398 2.123-1.46 2.123-3.184 0-.398-.133-.929-.265-1.592-.133-.53-.53-1.062-.929-1.592-.398-.398-.796-1.062-1.194-1.725-.398-.53-.663-1.46-.663-2.388 0-.929.398-1.858 1.194-3.184.663-1.195 2.122-1.725 4.113-1.725 2.653 0 4.378.796 5.307 2.52.796 1.725 1.194 3.583 1.194 5.573 0 1.194-.398 2.786-1.062 4.776-.663 1.99-1.99 3.98-3.582 5.97-1.725 1.99-4.113 3.583-6.9 5.042-2.785 1.46-6.368 2.256-10.48 2.256-2.256 0-5.042-.265-8.624-.663-3.583-.398-7.298-.664-10.88-1.062l-19.769 62.092zM279.226 313c1.592 0 2.388.399 2.255 1.327-.133.93-.796 1.858-1.99 2.787-1.327 1.061-3.184 1.99-5.44 2.919-2.388.928-5.042 1.326-8.093 1.326-1.99 0-3.45-.398-4.113-1.194-.663-.929-1.061-1.857-1.061-2.786 0-.663.132-1.46.53-2.654.266-1.06.664-2.52 1.327-4.51l2.388-7.165a586.5 586.5 0 013.582-10.349l3.583-10.481c.663-1.725 1.061-3.317 1.46-4.511.397-1.194.53-2.123.53-2.919 0-1.194-.53-1.725-1.725-1.725-.265 0-.663-.132-1.194-.398-.53-.265-.929-.663-1.327-1.194-.398-.398-.53-.929-.398-1.592 0-.663.53-1.327 1.592-2.123.929-.663 2.521-1.46 4.644-2.255 2.123-.664 5.174-1.46 9.022-2.123 1.99-.398 3.582-.133 4.644 1.061 1.061 1.194 1.592 2.389 1.592 3.715 0 1.46-.398 3.317-1.062 5.44-.796 2.255-1.857 5.307-3.184 9.155l-7.164 20.299c-.93 2.52-1.46 4.246-1.725 5.307-.266 1.194-.398 2.123-.398 2.786 0 .398.132.796.398 1.194.132.398.663.664 1.327.664zm7.031-79.207c3.185 0 5.573.664 7.165 2.123 1.46 1.46 2.255 3.317 2.255 5.307 0 1.061-.265 2.123-.663 3.052a10.625 10.625 0 01-1.99 2.786 10.924 10.924 0 01-2.92 2.123c-1.193.53-2.387.796-3.581.796-2.521 0-4.644-.664-6.103-2.123-1.593-1.46-2.389-3.45-2.389-5.97 0-1.99.796-3.848 2.389-5.573 1.592-1.725 3.582-2.52 5.837-2.52zm19.636 87.567c-4.776 0-8.358-.797-10.614-2.256-2.388-1.46-3.582-3.45-3.582-5.705 0-1.99.53-3.583 1.725-4.777 1.061-1.194 2.388-1.724 3.98-1.724 1.725 0 3.184.53 4.379 1.592 1.06 1.194 1.99 2.653 2.786 4.643.398.93.796 1.725 1.592 2.389.53.663 1.327.928 1.99.928 4.113 0 6.103-2.919 6.236-8.889 0-1.061-.133-1.99-.398-2.919-.398-.929-.796-1.857-1.327-2.786-.663-.796-1.327-1.858-1.99-3.052-.796-1.061-1.592-2.388-2.521-3.847-.929-1.592-1.858-3.052-2.52-4.246-.664-1.194-1.328-2.255-1.726-3.184-.398-.929-.796-1.99-.928-3.052-.266-.928-.398-2.122-.398-3.316 0-2.256.53-4.511 1.459-6.634s2.255-3.98 4.113-5.705c1.857-1.725 4.113-3.052 6.9-3.98 2.785-.93 5.97-1.46 9.552-1.46 1.327 0 2.653.133 4.113.398 1.326.265 2.52.663 3.582 1.327 1.061.663 1.99 1.46 2.653 2.52.664 1.062 1.062 2.389 1.062 3.848 0 1.99-.53 3.582-1.46 4.776-1.061 1.195-2.52 1.858-4.51 1.858-1.46 0-2.654-.398-3.715-1.194-1.195-.796-1.858-2.256-2.123-4.378-.133-.93-.531-1.858-.929-2.787-.53-.796-1.327-1.194-2.256-1.194-1.326 0-2.388.398-3.316 1.194-.93.796-1.46 2.787-1.46 6.103 0 1.195.266 2.521.796 3.715.398 1.194 1.062 2.389 1.858 3.583.663 1.194 1.46 2.255 2.255 3.184.796 1.061 1.46 1.857 1.99 2.52 2.123 2.522 3.45 4.777 4.113 6.767.531 1.99.796 4.246.796 6.767a19.5 19.5 0 01-1.46 7.43c-.928 2.255-2.387 4.245-4.245 5.97-1.857 1.725-4.113 3.184-6.899 4.113-2.786.929-5.97 1.46-9.553 1.46zM84.407 416.355c-.744 2.38-1.487 4.61-2.082 6.84-.594 2.23-1.338 4.163-2.379 5.799-1.04 1.635-2.23 2.974-3.717 3.866-1.635 1.04-3.717 1.487-6.394 1.338-3.42-.149-5.798-.149-7.434-.149-1.636.149-2.528-.446-2.676-1.487-.149-1.04.148-2.825 1.19-5.65 1.04-2.825 2.378-6.988 4.311-12.787l22.303-68.991c-4.014-.446-8.177-.893-12.787-1.041-4.61-.149-8.475-.298-11.746-.298-7.732 0-13.68 1.636-17.694 4.758-4.163 3.272-6.245 7.286-6.245 11.896 0 .743 0 1.486.149 2.379.148.892.594 1.932 1.338 2.973.743.892 1.487.892 2.528 0 .743-.594 1.784-1.04 2.825-1.338.892-.149 2.081-.297 3.122-.297a7.08 7.08 0 015.056 2.081c1.338 1.339 2.081 3.42 2.081 6.097 0 1.784-.743 3.568-2.379 5.352-1.635 1.785-4.014 2.677-7.434 2.677-1.338 0-2.677-.298-4.164-.892-1.486-.446-2.825-1.487-4.163-2.974-1.338-1.338-2.528-3.271-3.42-5.65-.892-2.23-1.338-5.204-1.338-8.773 0-1.487.149-3.122.595-5.055.446-1.933 1.04-3.866 2.082-5.948 1.04-2.081 2.379-4.163 4.014-6.245 1.636-2.081 3.866-4.014 6.542-5.65 3.42-2.23 7.584-3.866 12.49-5.055 4.907-1.19 11.003-1.785 17.992-1.785 6.84 0 13.084.298 18.883.744 5.799.446 11.598 1.04 17.545 1.784 4.907.595 9.219 1.19 13.233 1.636 4.015.594 6.989.892 8.922.892 1.933 0 3.717-.298 5.353-.744 1.635-.446 2.379-1.635 2.379-3.568 0-.446-.15-1.041-.298-1.784-.149-.595-.595-1.19-1.04-1.785-.447-.446-.893-1.19-1.339-1.933-.446-.594-.743-1.635-.743-2.676 0-1.04.446-2.082 1.338-3.569.743-1.338 2.379-1.932 4.61-1.932 2.973 0 4.906.892 5.947 2.825.892 1.933 1.338 4.014 1.338 6.245 0 1.338-.446 3.122-1.19 5.352-.743 2.23-2.23 4.46-4.014 6.691-1.933 2.23-4.61 4.015-7.732 5.65-3.122 1.636-7.137 2.528-11.746 2.528-2.528 0-5.65-.297-9.665-.743-4.015-.446-8.178-.744-12.192-1.19l-22.155 69.586zm68.843-24.385l1.338 1.041c1.636-2.676 3.568-5.353 5.65-8.029 1.933-2.676 4.163-5.055 6.542-7.137a34.492 34.492 0 017.286-5.204c2.528-1.338 5.056-1.933 7.732-1.933 2.825 0 5.055.446 6.69 1.487 1.636 1.04 2.975 2.23 4.016 3.717 1.04 1.487 1.635 3.123 2.081 5.056.298 1.932.446 3.717.446 5.501 0 5.353-.892 10.854-2.676 16.653-1.933 5.948-4.163 11.152-6.84 15.91-3.568 6.096-7.583 11.003-11.895 14.571-4.312 3.569-9.219 5.353-14.571 5.353-2.528 0-4.758-.743-6.691-2.379-1.933-1.636-2.825-4.015-2.677-7.137-.148-1.933.446-3.569 1.636-5.204 1.04-1.636 2.676-2.38 4.907-2.38 1.932 0 3.42.596 4.312 1.785.892 1.19 1.486 2.38 1.635 3.717.149 1.487.297 2.677.744 3.717.297 1.041 1.04 1.636 2.081 1.636.744 0 1.636-.595 2.38-1.636.743-1.04 1.337-2.379 2.08-4.014.596-1.487 1.19-3.42 1.785-5.502l1.784-6.244a203.983 203.983 0 003.42-13.68c1.041-4.907 1.487-9.367 1.487-13.382 0-4.312-1.487-6.393-4.46-6.393-1.339 0-2.974.594-4.61 1.933-1.784 1.338-3.568 2.825-5.204 4.609a88.61 88.61 0 00-5.055 5.501c-1.636 1.933-2.974 3.718-4.015 5.056a83.263 83.263 0 00-4.61 7.286c-1.338 2.379-2.23 4.46-2.973 6.096l-8.475 20.816c-.446.744-1.19 1.041-2.528 1.041h-11.895c-1.487 0-1.933-.595-1.487-1.784l36.875-99.027h15.612c1.19 0 1.784.446 1.784 1.487 0 1.04-.595 2.676-1.635 5.204L153.25 391.97zm97.093 27.36c.446.445.595.891.297 1.486-.743 1.338-1.933 2.974-3.568 4.61-1.636 1.635-3.717 3.27-6.096 4.757-2.528 1.636-5.353 2.825-8.476 3.866-3.122 1.19-6.542 1.636-10.26 1.636-5.054 0-9.218-1.487-12.489-4.312-3.271-2.825-4.907-6.988-4.907-12.341 0-2.825.298-5.8 1.041-9.07.595-3.123 1.636-6.394 2.974-9.814 1.338-3.42 3.271-6.69 5.65-9.962 2.23-3.271 5.056-6.245 8.327-9.07 3.717-3.122 7.583-5.65 11.895-7.583 4.163-1.933 8.475-2.825 12.936-2.825 4.163 0 7.137 1.04 8.92 2.974 1.785 1.933 2.677 4.46 2.677 7.286 0 4.163-1.19 7.731-3.42 10.854-2.379 3.122-5.798 5.947-10.11 8.475-4.164 2.23-8.178 3.866-11.895 4.758-3.718 1.04-7.137 1.636-9.963 1.784-.297.744-.594 1.933-.743 3.569-.297 1.784-.446 3.717-.446 5.799 0 2.527.743 4.758 2.082 6.69 1.338 1.934 3.42 2.974 5.947 2.974 3.717 0 6.84-.892 9.516-2.527 2.677-1.636 4.907-3.271 6.542-5.204.447-.595.744-.744 1.19-.446l2.379 1.635zm-25.277-17.992c1.338.149 3.271-.298 6.096-1.338 2.825-1.041 5.204-2.528 7.435-4.61 1.19-1.04 2.23-2.825 3.27-5.055 1.042-2.23 1.488-4.61 1.488-7.137 0-1.19-.298-2.38-.744-3.42s-1.635-1.636-3.27-1.636c-1.34 0-2.826.744-4.313 2.23-1.487 1.488-2.825 3.42-4.163 5.65-1.338 2.38-2.38 4.908-3.42 7.584a73.762 73.762 0 00-2.379 7.732zm102.297 72.56c-7.583 0-14.125-.892-19.627-2.528-5.501-1.784-9.962-4.163-13.382-6.988s-6.096-6.245-7.732-9.962c-1.635-3.718-2.379-7.732-2.379-11.896 0-3.568.744-6.84 2.23-9.962 1.488-2.973 3.42-5.65 5.948-7.88 2.528-2.23 5.502-3.866 8.922-5.204 3.27-1.338 6.69-1.933 10.408-1.933 5.501 0 9.665 1.338 12.787 4.014 2.974 2.826 4.46 6.245 4.46 10.557 0 1.636-.594 3.42-1.932 5.056-1.338 1.635-3.569 2.379-6.691 2.379-1.338 0-2.825-.595-4.164-1.636-1.486-1.19-2.379-2.676-2.676-4.46-.892-6.097-2.974-9.22-6.394-9.368a5.984 5.984 0 00-2.973 1.338c-1.041.744-2.082 1.933-2.825 3.569a20.45 20.45 0 00-2.082 5.799c-.446 2.23-.743 4.758-.743 7.731 0 3.123.743 6.097 2.23 9.22 1.487 2.973 3.568 5.65 6.245 8.177 2.676 2.38 5.799 4.312 9.516 5.799 3.568 1.487 7.583 2.23 11.895 2.23 5.947 0 11.152-.892 15.612-2.825 4.46-1.933 8.178-4.46 11.152-7.583 2.825-3.122 5.055-6.84 6.542-11.003s2.23-8.475 2.23-13.084c0-5.205-.446-9.814-1.486-14.126-1.041-4.163-2.23-8.03-3.569-11.598-1.487-3.568-2.974-6.988-4.61-10.26-1.635-3.122-3.27-6.393-4.609-9.664-2.23-5.204-4.163-10.11-5.501-14.571-1.487-4.46-2.23-8.624-2.23-12.341 0-4.015.743-7.732 2.379-11.152 1.635-3.42 3.865-6.542 6.988-9.07 2.974-2.528 6.542-4.61 10.854-6.096 4.312-1.487 9.07-2.23 14.423-2.23 4.758 0 8.624.594 11.746 1.784 2.974 1.19 5.353 2.676 6.989 4.312 1.635 1.635 2.825 3.42 3.42 5.055.594 1.784.892 3.122.892 4.163 0 2.23-.744 4.461-2.38 6.543-1.635 2.081-4.014 3.122-7.434 3.122-2.23 0-4.163-.743-5.501-2.379-1.338-1.636-2.082-3.271-2.082-4.907 0-1.487.149-2.676.595-3.866a11.11 11.11 0 011.19-2.676c.743-1.338.594-2.676-.744-4.163-1.338-1.338-3.866-1.933-7.286-1.933-2.527 0-4.758.446-6.69 1.338-1.934.892-3.42 2.082-4.759 3.569-1.338 1.635-2.23 3.42-2.825 5.352-.595 1.933-.892 4.015-.892 6.245 0 5.502.892 10.557 2.825 15.166 1.784 4.61 3.866 9.368 6.394 14.572 1.487 3.271 3.122 6.542 4.758 9.665a98.428 98.428 0 014.46 9.813c1.339 3.42 2.38 6.84 3.272 10.408a56.336 56.336 0 011.189 11.45c0 6.988-1.338 13.381-4.015 19.329-2.676 5.947-6.393 11.151-11.3 15.612-4.907 4.312-10.854 7.732-17.842 10.26-6.989 2.527-14.72 3.717-23.196 3.717zm112.855-54.568c.446.445.595.891.297 1.486-.743 1.338-1.933 2.974-3.568 4.61-1.636 1.635-3.718 3.27-6.097 4.757-2.527 1.636-5.352 2.825-8.475 3.866-3.122 1.19-6.542 1.636-10.26 1.636-5.055 0-9.218-1.487-12.49-4.312-3.27-2.825-4.906-6.988-4.906-12.341 0-2.825.298-5.8 1.041-9.07.595-3.123 1.636-6.394 2.974-9.814 1.338-3.42 3.27-6.69 5.65-9.962 2.23-3.271 5.055-6.245 8.326-9.07 3.718-3.122 7.584-5.65 11.896-7.583 4.163-1.933 8.475-2.825 12.935-2.825 4.164 0 7.137 1.04 8.922 2.974 1.784 1.933 2.676 4.46 2.676 7.286 0 4.163-1.19 7.731-3.42 10.854-2.379 3.122-5.799 5.947-10.11 8.475-4.164 2.23-8.178 3.866-11.896 4.758-3.717 1.04-7.137 1.636-9.962 1.784-.297.744-.594 1.933-.743 3.569-.298 1.784-.446 3.717-.446 5.799 0 2.527.743 4.758 2.081 6.69 1.339 1.934 3.42 2.974 5.948 2.974 3.717 0 6.84-.892 9.516-2.527 2.676-1.636 4.907-3.271 6.542-5.204.446-.595.744-.744 1.19-.446l2.379 1.635zm-25.277-17.992c1.338.149 3.271-.298 6.096-1.338 2.825-1.041 5.204-2.528 7.434-4.61 1.19-1.04 2.23-2.825 3.272-5.055 1.04-2.23 1.486-4.61 1.486-7.137 0-1.19-.297-2.38-.743-3.42s-1.636-1.636-3.271-1.636c-1.338 0-2.825.744-4.312 2.23-1.487 1.488-2.825 3.42-4.163 5.65-1.339 2.38-2.38 4.908-3.42 7.584a73.762 73.762 0 00-2.38 7.732zm106.908-31.373c1.04 0 1.487.594 1.19 1.784-.595 1.635-1.339 3.866-2.38 6.84-1.04 2.973-2.23 6.096-3.27 9.218-1.042 3.123-2.082 6.096-2.975 8.921-1.04 2.826-1.635 4.759-1.933 5.948-.148.595-.594 1.933-1.19 4.015-.594 2.23-1.189 4.46-1.932 6.84a90.162 90.162 0 00-1.784 6.542c-.595 2.081-.892 3.42-.892 4.014 0 1.19.594 1.784 1.784 1.784.595 0 1.338.298 2.081 1.041.744.744.893 1.636.595 2.677-.446 1.04-1.635 2.23-3.717 3.27-2.23 1.19-5.799 2.082-11.003 2.826-2.23.297-3.866-.149-4.758-1.19-.892-1.19-1.338-2.379-1.338-3.568 0-.446.149-1.041.297-1.784.149-.744.298-1.785.744-3.123.446-1.338 1.04-3.271 1.784-5.501.743-2.23 1.636-5.204 2.974-8.922l-1.338-.743c-1.487 2.23-3.123 4.758-5.056 7.583-1.933 2.825-4.163 5.65-6.69 8.178-2.529 2.528-5.205 4.758-8.179 6.393a18.578 18.578 0 01-9.664 2.677c-1.041 0-2.082-.298-3.272-.892-1.19-.744-2.23-1.636-3.27-2.677-1.042-1.04-1.934-2.379-2.677-3.717-.744-1.338-1.041-2.825-1.041-4.312 0-3.122.446-6.542 1.487-10.408a79.596 79.596 0 014.163-11.746c1.636-4.015 3.717-7.88 6.245-11.598 2.528-3.717 5.204-7.137 8.178-9.962 2.825-2.825 5.947-5.204 9.367-6.989 3.271-1.784 6.691-2.676 10.26-2.676 3.42 0 5.947.595 7.583 1.636 1.636 1.19 2.974 2.379 4.015 3.568l2.379-4.312c.743-1.04 1.635-1.635 2.676-1.635h10.557zm-49.216 49.215c0 1.636.297 2.826.892 3.42.595.744 1.487 1.041 2.676 1.041 1.041 0 2.528-1.04 4.61-3.122 1.933-2.082 4.014-4.61 6.245-7.435 2.081-2.825 4.014-5.65 5.947-8.475 1.933-2.825 3.123-5.055 3.866-6.542.892-1.933 1.636-4.164 2.38-6.691.743-2.528 1.04-5.056 1.04-7.583 0-1.636-.743-3.272-2.082-4.61-1.487-1.338-2.973-2.081-4.46-2.081-3.718 0-7.435 3.42-11.152 10.11-3.717 6.691-6.394 12.639-7.732 18.14-1.487 5.502-2.23 10.111-2.23 13.828zm65.721 16.505c-5.353 0-9.368-.892-11.896-2.528-2.676-1.635-4.014-3.866-4.014-6.393 0-2.23.595-4.015 1.933-5.353 1.19-1.338 2.676-1.933 4.46-1.933 1.933 0 3.569.595 4.907 1.784 1.19 1.338 2.23 2.974 3.123 5.204.446 1.041.892 1.933 1.784 2.677.595.743 1.487 1.04 2.23 1.04 4.61 0 6.84-3.27 6.989-9.962 0-1.19-.15-2.23-.447-3.27-.446-1.042-.892-2.083-1.486-3.123-.744-.892-1.487-2.082-2.23-3.42-.893-1.19-1.785-2.677-2.826-4.312-1.04-1.784-2.081-3.42-2.825-4.758-.743-1.338-1.487-2.528-1.933-3.569-.446-1.04-.892-2.23-1.04-3.42-.298-1.04-.447-2.379-.447-3.717 0-2.527.595-5.055 1.636-7.434 1.04-2.38 2.528-4.46 4.61-6.394 2.08-1.933 4.609-3.42 7.731-4.46 3.122-1.041 6.691-1.636 10.706-1.636 1.486 0 2.973.149 4.609.446 1.487.297 2.825.744 4.014 1.487 1.19.743 2.23 1.636 2.974 2.825.744 1.19 1.19 2.676 1.19 4.312 0 2.23-.595 4.015-1.636 5.353-1.19 1.338-2.825 2.081-5.055 2.081-1.636 0-2.974-.446-4.163-1.338-1.339-.892-2.082-2.527-2.38-4.906-.148-1.041-.594-2.082-1.04-3.123-.595-.892-1.487-1.338-2.528-1.338-1.487 0-2.676.446-3.717 1.338-1.041.892-1.636 3.123-1.636 6.84 0 1.338.298 2.825.892 4.163.446 1.338 1.19 2.676 2.082 4.015.743 1.338 1.636 2.527 2.528 3.568.892 1.19 1.635 2.082 2.23 2.825 2.379 2.825 3.866 5.353 4.61 7.583.594 2.23.891 4.758.891 7.583 0 2.974-.594 5.8-1.635 8.327-1.04 2.528-2.676 4.758-4.758 6.69-2.082 1.934-4.61 3.57-7.732 4.61-3.122 1.041-6.69 1.636-10.705 1.636zm62.002 0c-2.23 0-4.461-.446-6.691-1.19-2.23-.743-4.312-2.081-6.245-3.866-1.933-1.784-3.569-4.163-4.758-7.137-1.338-2.825-1.933-6.393-1.933-10.556 0-6.097.892-12.044 2.825-17.992 1.784-5.799 4.758-11.003 8.921-15.612 3.123-3.123 6.394-5.353 9.962-6.691 3.42-1.338 7.286-1.933 11.3-1.933 1.934 0 4.164.297 6.692.892 2.379.595 4.609 1.636 6.84 3.271 2.08 1.636 3.865 3.717 5.352 6.543 1.338 2.973 2.082 6.542 2.082 11.151 0 2.23-.149 4.758-.595 7.583-.446 2.974-1.19 6.097-2.082 9.219-1.04 3.122-2.23 6.245-3.866 9.367-1.635 3.123-3.568 5.8-5.947 8.327-2.825 3.122-6.096 5.353-9.516 6.69-3.42 1.34-7.583 1.934-12.341 1.934zm-2.082-8.624c1.04 0 2.23-.149 3.42-.744 1.19-.446 2.379-1.189 3.717-2.23 1.19-1.04 2.528-2.676 3.866-4.61a69.044 69.044 0 004.312-7.136c1.19-2.23 2.379-4.61 3.42-7.137 1.04-2.528 2.081-4.907 2.974-7.435.743-2.527 1.486-4.758 1.932-6.988.447-2.082.744-3.866.744-5.204a9.229 9.229 0 00-1.19-4.61c-.892-1.189-2.379-1.784-4.312-1.784-2.825 0-5.501 1.338-7.88 4.015-2.528 2.825-5.353 7.137-8.773 13.233-2.527 4.46-4.46 8.773-5.65 13.085-1.19 4.312-1.784 7.88-1.784 11.003 0 1.487.446 2.973 1.338 4.312.892 1.486 2.23 2.23 3.866 2.23zm46.986 7.137c-1.338 0-1.784-.595-1.338-1.636l10.26-28.548c.892-2.379 1.784-4.758 2.528-6.988.743-2.23 1.487-4.46 2.081-6.394.595-1.933 1.041-3.568 1.487-4.906.446-1.339.595-2.23.595-2.677 0-1.635-.595-2.379-1.933-2.379-.297 0-.595-.595-.743-1.635-.298-1.041-.15-2.082.594-3.42.595-1.19 1.933-2.23 4.164-3.42 2.081-1.04 5.352-1.487 9.962-1.487 2.23 0 3.866.595 4.758 1.933.743 1.338 1.19 2.676 1.19 3.866 0 1.04-.744 3.42-2.082 6.988-1.339 3.569-3.123 7.732-5.056 12.341l1.338 1.041c1.041-1.635 2.677-3.866 4.758-6.84a54.348 54.348 0 017.137-8.772c2.826-2.825 5.8-5.204 9.22-7.435 3.27-2.081 6.69-3.122 10.407-3.122 1.636 0 2.974.297 4.164.892 1.19.744 2.23 1.487 2.973 2.528.744 1.04 1.339 2.081 1.785 3.271.446 1.19.594 2.23.594 3.271 0 .744-.148 1.784-.446 3.123-.297 1.338-.743 2.973-1.338 5.055l-2.676 8.03c-1.19 3.122-2.528 6.988-4.164 11.597-1.784 5.055-2.973 8.624-3.717 10.705-.743 2.082-1.04 3.569-1.04 4.461 0 1.636.594 2.528 1.932 2.528.298 0 .744.297 1.487.892.595.743.744 1.487.298 2.379-.446 1.04-1.785 2.082-4.015 3.122-2.23 1.041-6.096 2.082-11.598 3.123-2.23.446-3.866 0-4.609-1.338-.892-1.487-1.338-2.825-1.338-4.312 0-1.339.743-4.164 2.23-8.476 1.338-4.312 3.271-9.664 5.502-16.207.594-1.635 1.19-3.568 1.933-5.501.743-1.933 1.338-3.866 1.932-5.799.595-1.933 1.041-3.568 1.487-5.055.446-1.339.595-2.38.595-3.123 0-2.23-1.04-3.27-2.974-3.27-.892 0-2.081.594-3.717 1.932-1.635 1.338-3.568 3.122-5.501 5.204-1.933 2.082-4.015 4.46-5.948 6.988-1.933 2.528-3.717 5.056-5.204 7.435-1.636 2.528-3.122 5.055-4.46 7.137-1.487 2.379-2.38 4.015-2.826 5.353l-5.799 16.653c-.148.297-.446.446-.594.595-.298.148-.892.297-1.636.297h-12.638z" fill="#a7a9ac" fill-rule="nonzero"/></svg>